<svg xmlns="http://www.w3.org/2000/svg" width="1440" height="900"><path d="M750,520L733,590L853,570Z" fill="#7f7f7f" stroke="#7f7f7f" stroke-width="1.51"/><path d="M853,570L875,484L750,520Z" fill="#808080" stroke="#808080" stroke-width="1.51"/><path d="M733,590L822,693L853,570Z" fill="#747474" stroke="#747474" stroke-width="1.51"/><path d="M853,570L932,544L875,484Z" fill="#797979" stroke="#797979" stroke-width="1.51"/><path d="M733,590L751,735L822,693Z" fill="#6f6f6f" stroke="#6f6f6f" stroke-width="1.51"/><path d="M625,540L660,621L733,590Z" fill="#868686" stroke="#868686" stroke-width="1.51"/><path d="M958,641L932,544L853,570Z" fill="#6e6e6e" stroke="#6e6e6e" stroke-width="1.51"/><path d="M750,520L625,540L733,590Z" fill="#888888" stroke="#888888" stroke-width="1.51"/><path d="M640,442L625,540L750,520Z" fill="#939393" stroke="#939393" stroke-width="1.51"/><path d="M875,484L768,397L750,520Z" fill="#8c8c8c" stroke="#8c8c8c" stroke-width="1.51"/><path d="M656,692L751,735L733,590Z" fill="#747474" stroke="#747474" stroke-width="1.51"/><path d="M822,693L958,641L853,570Z" fill="#6a6a6a" stroke="#6a6a6a" stroke-width="1.51"/><path d="M902,776L958,641L822,693Z" fill="#5d5d5d" stroke="#5d5d5d" stroke-width="1.51"/><path d="M660,621L656,692L733,590Z" fill="#7d7d7d" stroke="#7d7d7d" stroke-width="1.51"/><path d="M611,677L656,692L660,621Z" fill="#7d7d7d" stroke="#7d7d7d" stroke-width="1.51"/><path d="M768,397L640,442L750,520Z" fill="#959595" stroke="#959595" stroke-width="1.51"/><path d="M875,484L909,401L768,397Z" fill="#8d8d8d" stroke="#8d8d8d" stroke-width="1.51"/><path d="M986,406L909,401L875,484Z" fill="#868686" stroke="#868686" stroke-width="1.51"/><path d="M986,406L875,484L932,544Z" fill="#7d7d7d" stroke="#7d7d7d" stroke-width="1.51"/><path d="M751,735L770,776L822,693Z" fill="#606060" stroke="#606060" stroke-width="1.51"/><path d="M716,817L770,776L751,735Z" fill="#5a5a5a" stroke="#5a5a5a" stroke-width="1.51"/><path d="M656,692L716,817L751,735Z" fill="#646464" stroke="#646464" stroke-width="1.51"/><path d="M564,576L611,677L660,621Z" fill="#868686" stroke="#868686" stroke-width="1.51"/><path d="M625,540L564,576L660,621Z" fill="#8c8c8c" stroke="#8c8c8c" stroke-width="1.51"/><path d="M574,465L564,576L625,540Z" fill="#989898" stroke="#989898" stroke-width="1.51"/><path d="M770,776L902,776L822,693Z" fill="#595959" stroke="#595959" stroke-width="1.51"/><path d="M640,442L574,465L625,540Z" fill="#9c9c9c" stroke="#9c9c9c" stroke-width="1.51"/><path d="M584,444L574,465L640,442Z" fill="#a3a3a3" stroke="#a3a3a3" stroke-width="1.51"/><path d="M768,397L751,330L640,442Z" fill="#a0a0a0" stroke="#a0a0a0" stroke-width="1.51"/><path d="M876,290L751,330L768,397Z" fill="#a1a1a1" stroke="#a1a1a1" stroke-width="1.51"/><path d="M502,349L584,444L549,279Z" fill="#b9b9b9" stroke="#b9b9b9" stroke-width="1.51"/><path d="M902,776L966,748L958,641Z" fill="#555555" stroke="#555555" stroke-width="1.51"/><path d="M1064,459L986,406L932,544Z" fill="#797979" stroke="#797979" stroke-width="1.51"/><path d="M909,401L876,290L768,397Z" fill="#989898" stroke="#989898" stroke-width="1.51"/><path d="M1108,640L932,544L958,641Z" fill="#636363" stroke="#636363" stroke-width="1.51"/><path d="M770,776L887,942L902,776Z" fill="#484848" stroke="#484848" stroke-width="1.51"/><path d="M567,780L716,817L656,692Z" fill="#676767" stroke="#676767" stroke-width="1.51"/><path d="M966,748L1059,673L958,641Z" fill="#575757" stroke="#575757" stroke-width="1.51"/><path d="M902,776L996,767L966,748Z" fill="#4b4b4b" stroke="#4b4b4b" stroke-width="1.51"/><path d="M1041,845L996,767L902,776Z" fill="#424242" stroke="#424242" stroke-width="1.51"/><path d="M996,767L1059,673L966,748Z" fill="#4d4d4d" stroke="#4d4d4d" stroke-width="1.51"/><path d="M970,268L876,290L909,401Z" fill="#989898" stroke="#989898" stroke-width="1.51"/><path d="M986,406L970,268L909,401Z" fill="#8f8f8f" stroke="#8f8f8f" stroke-width="1.51"/><path d="M1108,640L1064,459L932,544Z" fill="#696969" stroke="#696969" stroke-width="1.51"/><path d="M584,444L510,466L574,465Z" fill="#a6a6a6" stroke="#a6a6a6" stroke-width="1.51"/><path d="M574,465L510,466L564,576Z" fill="#a0a0a0" stroke="#a0a0a0" stroke-width="1.51"/><path d="M564,576L498,642L611,677Z" fill="#8a8a8a" stroke="#8a8a8a" stroke-width="1.51"/><path d="M502,349L510,466L584,444Z" fill="#afafaf" stroke="#afafaf" stroke-width="1.51"/><path d="M510,466L498,642L564,576Z" fill="#989898" stroke="#989898" stroke-width="1.51"/><path d="M611,677L567,780L656,692Z" fill="#757575" stroke="#757575" stroke-width="1.51"/><path d="M482,682L567,780L611,677Z" fill="#7b7b7b" stroke="#7b7b7b" stroke-width="1.51"/><path d="M716,817L739,897L770,776Z" fill="#525252" stroke="#525252" stroke-width="1.51"/><path d="M567,780L706,869L716,817Z" fill="#5a5a5a" stroke="#5a5a5a" stroke-width="1.51"/><path d="M1064,459L1073,422L986,406Z" fill="#7a7a7a" stroke="#7a7a7a" stroke-width="1.51"/><path d="M1152,372L1073,422L1201,468Z" fill="#6f6f6f" stroke="#6f6f6f" stroke-width="1.51"/><path d="M876,290L795,247L751,330Z" fill="#a6a6a6" stroke="#a6a6a6" stroke-width="1.51"/><path d="M751,330L704,255L640,442Z" fill="#ababab" stroke="#ababab" stroke-width="1.51"/><path d="M795,247L704,255L751,330Z" fill="#aeaeae" stroke="#aeaeae" stroke-width="1.51"/><path d="M1059,673L1108,640L958,641Z" fill="#595959" stroke="#595959" stroke-width="1.51"/><path d="M1175,773L1108,640L1059,673Z" fill="#494949" stroke="#494949" stroke-width="1.51"/><path d="M350,635L482,682L498,642Z" fill="#909090" stroke="#909090" stroke-width="1.51"/><path d="M498,642L482,682L611,677Z" fill="#878787" stroke="#878787" stroke-width="1.51"/><path d="M706,869L739,897L716,817Z" fill="#4f4f4f" stroke="#4f4f4f" stroke-width="1.51"/><path d="M767,959L739,897L592,999Z" fill="#4b4b4b" stroke="#4b4b4b" stroke-width="1.51"/><path d="M1087,249L970,268L986,406Z" fill="#8f8f8f" stroke="#8f8f8f" stroke-width="1.51"/><path d="M876,290L826,195L795,247Z" fill="#a9a9a9" stroke="#a9a9a9" stroke-width="1.51"/><path d="M340,510L350,635L498,642Z" fill="#9c9c9c" stroke="#9c9c9c" stroke-width="1.51"/><path d="M549,279L584,444L640,442Z" fill="#aeaeae" stroke="#aeaeae" stroke-width="1.51"/><path d="M795,247L687,183L704,255Z" fill="#b5b5b5" stroke="#b5b5b5" stroke-width="1.51"/><path d="M704,255L549,279L640,442Z" fill="#b4b4b4" stroke="#b4b4b4" stroke-width="1.51"/><path d="M985,200L826,195L876,290Z" fill="#a5a5a5" stroke="#a5a5a5" stroke-width="1.51"/><path d="M952,945L1041,845L902,776Z" fill="#3b3b3b" stroke="#3b3b3b" stroke-width="1.51"/><path d="M996,767L1175,773L1059,673Z" fill="#454545" stroke="#454545" stroke-width="1.51"/><path d="M687,183L549,279L704,255Z" fill="#bdbdbd" stroke="#bdbdbd" stroke-width="1.51"/><path d="M1108,640L1174,620L1064,459Z" fill="#5c5c5c" stroke="#5c5c5c" stroke-width="1.51"/><path d="M1217,674L1174,620L1108,640Z" fill="#4b4b4b" stroke="#4b4b4b" stroke-width="1.51"/><path d="M739,897L887,942L770,776Z" fill="#464646" stroke="#464646" stroke-width="1.51"/><path d="M739,897L767,959L887,942Z" fill="#424242" stroke="#424242" stroke-width="1.51"/><path d="M592,999L739,897L706,869Z" fill="#4d4d4d" stroke="#4d4d4d" stroke-width="1.51"/><path d="M826,195L687,183L795,247Z" fill="#b3b3b3" stroke="#b3b3b3" stroke-width="1.51"/><path d="M549,279L507,282L502,349Z" fill="#c2c2c2" stroke="#c2c2c2" stroke-width="1.51"/><path d="M533,246L507,282L549,279Z" fill="#c6c6c6" stroke="#c6c6c6" stroke-width="1.51"/><path d="M567,780L548,933L706,869Z" fill="#5a5a5a" stroke="#5a5a5a" stroke-width="1.51"/><path d="M482,682L461,805L567,780Z" fill="#767676" stroke="#767676" stroke-width="1.51"/><path d="M380,755L461,805L482,682Z" fill="#7c7c7c" stroke="#7c7c7c" stroke-width="1.51"/><path d="M498,642L510,466L340,510Z" fill="#a2a2a2" stroke="#a2a2a2" stroke-width="1.51"/><path d="M1073,422L1087,249L986,406Z" fill="#858585" stroke="#858585" stroke-width="1.51"/><path d="M1201,468L1073,422L1064,459Z" fill="#6e6e6e" stroke="#6e6e6e" stroke-width="1.51"/><path d="M863,1003L952,945L887,942Z" fill="#3a3a3a" stroke="#3a3a3a" stroke-width="1.51"/><path d="M887,942L952,945L902,776Z" fill="#3a3a3a" stroke="#3a3a3a" stroke-width="1.51"/><path d="M687,183L533,246L549,279Z" fill="#c4c4c4" stroke="#c4c4c4" stroke-width="1.51"/><path d="M970,268L985,200L876,290Z" fill="#9d9d9d" stroke="#9d9d9d" stroke-width="1.51"/><path d="M826,195L695,106L687,183Z" fill="#bcbcbc" stroke="#bcbcbc" stroke-width="1.51"/><path d="M1087,249L985,200L970,268Z" fill="#979797" stroke="#979797" stroke-width="1.51"/><path d="M1174,620L1201,468L1064,459Z" fill="#606060" stroke="#606060" stroke-width="1.51"/><path d="M952,945L1081,879L1041,845Z" fill="#313131" stroke="#313131" stroke-width="1.51"/><path d="M1041,845L1175,773L996,767Z" fill="#3b3b3b" stroke="#3b3b3b" stroke-width="1.51"/><path d="M1152,372L1087,249L1073,422Z" fill="#808080" stroke="#808080" stroke-width="1.51"/><path d="M1081,879L1175,773L1041,845Z" fill="#323232" stroke="#323232" stroke-width="1.51"/><path d="M1174,620L1248,523L1201,468Z" fill="#555555" stroke="#555555" stroke-width="1.51"/><path d="M461,805L548,933L567,780Z" fill="#646464" stroke="#646464" stroke-width="1.51"/><path d="M1175,773L1217,674L1108,640Z" fill="#424242" stroke="#424242" stroke-width="1.51"/><path d="M767,959L863,1003L887,942Z" fill="#3f3f3f" stroke="#3f3f3f" stroke-width="1.51"/><path d="M952,945L1036,999L1081,879Z" fill="#2f2f2f" stroke="#2f2f2f" stroke-width="1.51"/><path d="M804,1078L863,1003L767,959Z" fill="#414141" stroke="#414141" stroke-width="1.51"/><path d="M340,510L510,466L338,382Z" fill="#b4b4b4" stroke="#b4b4b4" stroke-width="1.51"/><path d="M461,805L443,897L548,933Z" fill="#616161" stroke="#616161" stroke-width="1.51"/><path d="M350,635L380,755L482,682Z" fill="#8b8b8b" stroke="#8b8b8b" stroke-width="1.51"/><path d="M338,382L510,466L502,349Z" fill="#b9b9b9" stroke="#b9b9b9" stroke-width="1.51"/><path d="M338,382L502,349L352,249Z" fill="#c9c9c9" stroke="#c9c9c9" stroke-width="1.51"/><path d="M1025,88L937,135L985,200Z" fill="#a4a4a4" stroke="#a4a4a4" stroke-width="1.51"/><path d="M985,200L937,135L826,195Z" fill="#a8a8a8" stroke="#a8a8a8" stroke-width="1.51"/><path d="M937,135L907,123L826,195Z" fill="#adadad" stroke="#adadad" stroke-width="1.51"/><path d="M1317,319L1168,256L1152,372Z" fill="#757575" stroke="#757575" stroke-width="1.51"/><path d="M1168,256L1089,191L1087,249Z" fill="#8d8d8d" stroke="#8d8d8d" stroke-width="1.51"/><path d="M1242,669L1248,523L1174,620Z" fill="#4a4a4a" stroke="#4a4a4a" stroke-width="1.51"/><path d="M1217,674L1242,669L1174,620Z" fill="#444444" stroke="#444444" stroke-width="1.51"/><path d="M1285,771L1242,669L1217,674Z" fill="#373737" stroke="#373737" stroke-width="1.51"/><path d="M350,635L334,656L380,755Z" fill="#919191" stroke="#919191" stroke-width="1.51"/><path d="M305,673L334,656L259,646Z" fill="#999999" stroke="#999999" stroke-width="1.51"/><path d="M687,183L524,137L533,246Z" fill="#cacaca" stroke="#cacaca" stroke-width="1.51"/><path d="M747,63L695,106L826,195Z" fill="#bdbdbd" stroke="#bdbdbd" stroke-width="1.51"/><path d="M548,933L592,999L706,869Z" fill="#535353" stroke="#535353" stroke-width="1.51"/><path d="M476,1018L592,999L548,933Z" fill="#5a5a5a" stroke="#5a5a5a" stroke-width="1.51"/><path d="M413,906L443,897L461,805Z" fill="#666666" stroke="#666666" stroke-width="1.51"/><path d="M413,906L461,805L380,755Z" fill="#6f6f6f" stroke="#6f6f6f" stroke-width="1.51"/><path d="M937,135L953,-6L907,123Z" fill="#aeaeae" stroke="#aeaeae" stroke-width="1.51"/><path d="M1087,249L1089,191L985,200Z" fill="#969696" stroke="#969696" stroke-width="1.51"/><path d="M1168,256L1087,249L1152,372Z" fill="#828282" stroke="#828282" stroke-width="1.51"/><path d="M1081,879L1151,935L1175,773Z" fill="#292929" stroke="#292929" stroke-width="1.51"/><path d="M863,1003L1008,1001L952,945Z" fill="#363636" stroke="#363636" stroke-width="1.51"/><path d="M1314,416L1152,372L1201,468Z" fill="#656565" stroke="#656565" stroke-width="1.51"/><path d="M352,249L502,349L507,282Z" fill="#c9c9c9" stroke="#c9c9c9" stroke-width="1.51"/><path d="M259,646L334,656L350,635Z" fill="#9a9a9a" stroke="#9a9a9a" stroke-width="1.51"/><path d="M421,207L507,282L533,246Z" fill="#cccccc" stroke="#cccccc" stroke-width="1.51"/><path d="M684,1058L715,1051L767,959Z" fill="#494949" stroke="#494949" stroke-width="1.51"/><path d="M863,1003L1006,1084L1008,1001Z" fill="#353535" stroke="#353535" stroke-width="1.51"/><path d="M1008,1001L1036,999L952,945Z" fill="#323232" stroke="#323232" stroke-width="1.51"/><path d="M1175,773L1285,771L1217,674Z" fill="#323232" stroke="#323232" stroke-width="1.51"/><path d="M1006,1084L1036,999L1008,1001Z" fill="#303030" stroke="#303030" stroke-width="1.51"/><path d="M334,656L305,673L380,755Z" fill="#909090" stroke="#909090" stroke-width="1.51"/><path d="M259,646L350,635L340,510Z" fill="#a2a2a2" stroke="#a2a2a2" stroke-width="1.51"/><path d="M715,1051L804,1078L767,959Z" fill="#464646" stroke="#464646" stroke-width="1.51"/><path d="M592,999L684,1058L767,959Z" fill="#4d4d4d" stroke="#4d4d4d" stroke-width="1.51"/><path d="M695,106L524,137L687,183Z" fill="#c8c8c8" stroke="#c8c8c8" stroke-width="1.51"/><path d="M907,123L747,63L826,195Z" fill="#b5b5b5" stroke="#b5b5b5" stroke-width="1.51"/><path d="M700,-3L747,63L731,-29Z" fill="#c8c8c8" stroke="#c8c8c8" stroke-width="1.51"/><path d="M576,-34L524,137L695,106Z" fill="#d2d2d2" stroke="#d2d2d2" stroke-width="1.51"/><path d="M443,897L476,1018L548,933Z" fill="#5e5e5e" stroke="#5e5e5e" stroke-width="1.51"/><path d="M592,999L534,1155L684,1058Z" fill="#545454" stroke="#545454" stroke-width="1.51"/><path d="M374,981L413,906L259,963Z" fill="#676767" stroke="#676767" stroke-width="1.51"/><path d="M844,1142L804,1078L715,1051Z" fill="#434343" stroke="#434343" stroke-width="1.51"/><path d="M1036,999L1151,935L1081,879Z" fill="#2a2a2a" stroke="#2a2a2a" stroke-width="1.51"/><path d="M524,137L421,207L533,246Z" fill="#d1d1d1" stroke="#d1d1d1" stroke-width="1.51"/><path d="M1242,669L1322,589L1248,523Z" fill="#454545" stroke="#454545" stroke-width="1.51"/><path d="M1248,523L1314,416L1201,468Z" fill="#585858" stroke="#585858" stroke-width="1.51"/><path d="M1369,711L1322,589L1242,669Z" fill="#393939" stroke="#393939" stroke-width="1.51"/><path d="M1089,191L1025,88L985,200Z" fill="#9d9d9d" stroke="#9d9d9d" stroke-width="1.51"/><path d="M1101,38L1025,88L1089,191Z" fill="#9e9e9e" stroke="#9e9e9e" stroke-width="1.51"/><path d="M1239,881L1285,771L1175,773Z" fill="#252525" stroke="#252525" stroke-width="1.51"/><path d="M235,871L413,906L380,755Z" fill="#707070" stroke="#707070" stroke-width="1.51"/><path d="M251,493L259,646L340,510Z" fill="#ababab" stroke="#ababab" stroke-width="1.51"/><path d="M338,382L251,493L340,510Z" fill="#b8b8b8" stroke="#b8b8b8" stroke-width="1.51"/><path d="M421,207L352,249L507,282Z" fill="#d1d1d1" stroke="#d1d1d1" stroke-width="1.51"/><path d="M384,170L352,249L421,207Z" fill="#d8d8d8" stroke="#d8d8d8" stroke-width="1.51"/><path d="M352,249L291,353L338,382Z" fill="#cecece" stroke="#cecece" stroke-width="1.51"/><path d="M1403,489L1314,416L1248,523Z" fill="#515151" stroke="#515151" stroke-width="1.51"/><path d="M1168,256L1212,165L1089,191Z" fill="#898989" stroke="#898989" stroke-width="1.51"/><path d="M291,353L251,493L338,382Z" fill="#c2c2c2" stroke="#c2c2c2" stroke-width="1.51"/><path d="M1151,935L1239,881L1175,773Z" fill="#232323" stroke="#232323" stroke-width="1.51"/><path d="M413,906L476,1018L443,897Z" fill="#616161" stroke="#616161" stroke-width="1.51"/><path d="M374,981L476,1018L413,906Z" fill="#626262" stroke="#626262" stroke-width="1.51"/><path d="M1322,589L1344,581L1248,523Z" fill="#464646" stroke="#464646" stroke-width="1.51"/><path d="M1369,711L1344,581L1322,589Z" fill="#3a3a3a" stroke="#3a3a3a" stroke-width="1.51"/><path d="M1151,935L1283,991L1239,881Z" fill="#1a1a1a" stroke="#1a1a1a" stroke-width="1.51"/><path d="M1036,999L1156,1048L1151,935Z" fill="#272727" stroke="#272727" stroke-width="1.51"/><path d="M844,1142L1006,1084L863,1003Z" fill="#393939" stroke="#393939" stroke-width="1.51"/><path d="M423,133L421,207L524,137Z" fill="#d8d8d8" stroke="#d8d8d8" stroke-width="1.51"/><path d="M423,133L384,170L421,207Z" fill="#dadada" stroke="#dadada" stroke-width="1.51"/><path d="M352,249L259,266L291,353Z" fill="#d5d5d5" stroke="#d5d5d5" stroke-width="1.51"/><path d="M464,-50L423,133L524,137Z" fill="#dedede" stroke="#dedede" stroke-width="1.51"/><path d="M747,63L700,-3L695,106Z" fill="#c6c6c6" stroke="#c6c6c6" stroke-width="1.51"/><path d="M882,-27L747,63L907,123Z" fill="#b9b9b9" stroke="#b9b9b9" stroke-width="1.51"/><path d="M804,1078L844,1142L863,1003Z" fill="#3f3f3f" stroke="#3f3f3f" stroke-width="1.51"/><path d="M684,1058L844,1142L715,1051Z" fill="#474747" stroke="#474747" stroke-width="1.51"/><path d="M534,1155L844,1142L684,1058Z" fill="#4c4c4c" stroke="#4c4c4c" stroke-width="1.51"/><path d="M1314,416L1317,319L1152,372Z" fill="#676767" stroke="#676767" stroke-width="1.51"/><path d="M1409,446L1317,319L1314,416Z" fill="#5b5b5b" stroke="#5b5b5b" stroke-width="1.51"/><path d="M1315,191L1212,165L1168,256Z" fill="#7f7f7f" stroke="#7f7f7f" stroke-width="1.51"/><path d="M218,763L380,755L305,673Z" fill="#898989" stroke="#898989" stroke-width="1.51"/><path d="M1025,88L953,-6L937,135Z" fill="#ababab" stroke="#ababab" stroke-width="1.51"/><path d="M1101,38L953,-6L1025,88Z" fill="#a7a7a7" stroke="#a7a7a7" stroke-width="1.51"/><path d="M1344,581L1403,489L1248,523Z" fill="#484848" stroke="#484848" stroke-width="1.51"/><path d="M1285,771L1369,711L1242,669Z" fill="#303030" stroke="#303030" stroke-width="1.51"/><path d="M1394,842L1369,711L1285,771Z" fill="#202020" stroke="#202020" stroke-width="1.51"/><path d="M700,-3L576,-34L695,106Z" fill="#cfcfcf" stroke="#cfcfcf" stroke-width="1.51"/><path d="M804,-61L731,-29L747,63Z" fill="#c5c5c5" stroke="#c5c5c5" stroke-width="1.51"/><path d="M953,-6L882,-27L907,123Z" fill="#b3b3b3" stroke="#b3b3b3" stroke-width="1.51"/><path d="M1006,1084L1156,1048L1036,999Z" fill="#2c2c2c" stroke="#2c2c2c" stroke-width="1.51"/><path d="M1239,881L1394,842L1285,771Z" fill="#1b1b1b" stroke="#1b1b1b" stroke-width="1.51"/><path d="M1072,1150L1156,1048L1006,1084Z" fill="#2b2b2b" stroke="#2b2b2b" stroke-width="1.51"/><path d="M197,728L305,673L259,646Z" fill="#979797" stroke="#979797" stroke-width="1.51"/><path d="M197,728L218,763L305,673Z" fill="#8f8f8f" stroke="#8f8f8f" stroke-width="1.51"/><path d="M1212,165L1189,108L1089,191Z" fill="#8d8d8d" stroke="#8d8d8d" stroke-width="1.51"/><path d="M1275,91L1189,108L1212,165Z" fill="#878787" stroke="#878787" stroke-width="1.51"/><path d="M252,168L259,266L352,249Z" fill="#dddddd" stroke="#dddddd" stroke-width="1.51"/><path d="M291,353L182,421L251,493Z" fill="#c3c3c3" stroke="#c3c3c3" stroke-width="1.51"/><path d="M166,609L197,728L259,646Z" fill="#9e9e9e" stroke="#9e9e9e" stroke-width="1.51"/><path d="M252,168L352,249L384,170Z" fill="#dedede" stroke="#dedede" stroke-width="1.51"/><path d="M1189,108L1101,38L1089,191Z" fill="#969696" stroke="#969696" stroke-width="1.51"/><path d="M166,609L259,646L251,493Z" fill="#a9a9a9" stroke="#a9a9a9" stroke-width="1.51"/><path d="M1472,520L1403,489L1344,581Z" fill="#414141" stroke="#414141" stroke-width="1.51"/><path d="M142,324L182,421L291,353Z" fill="#d0d0d0" stroke="#d0d0d0" stroke-width="1.51"/><path d="M118,506L166,609L251,493Z" fill="#b4b4b4" stroke="#b4b4b4" stroke-width="1.51"/><path d="M853,-66L804,-61L882,-27Z" fill="#bcbcbc" stroke="#bcbcbc" stroke-width="1.51"/><path d="M882,-27L804,-61L747,63Z" fill="#c0c0c0" stroke="#c0c0c0" stroke-width="1.51"/><path d="M853,-66L882,-27L1006,-123Z" fill="#b5b5b5" stroke="#b5b5b5" stroke-width="1.51"/><path d="M1403,489L1409,446L1314,416Z" fill="#4f4f4f" stroke="#4f4f4f" stroke-width="1.51"/><path d="M1317,319L1315,191L1168,256Z" fill="#747474" stroke="#747474" stroke-width="1.51"/><path d="M218,763L235,871L380,755Z" fill="#7c7c7c" stroke="#7c7c7c" stroke-width="1.51"/><path d="M186,875L235,871L218,763Z" fill="#797979" stroke="#797979" stroke-width="1.51"/><path d="M476,1018L498,1129L592,999Z" fill="#5b5b5b" stroke="#5b5b5b" stroke-width="1.51"/><path d="M379,1153L498,1129L476,1018Z" fill="#606060" stroke="#606060" stroke-width="1.51"/><path d="M379,1153L476,1018L374,981Z" fill="#636363" stroke="#636363" stroke-width="1.51"/><path d="M1006,-123L882,-27L953,-6Z" fill="#b2b2b2" stroke="#b2b2b2" stroke-width="1.51"/><path d="M423,133L326,93L384,170Z" fill="#e1e1e1" stroke="#e1e1e1" stroke-width="1.51"/><path d="M654,-70L576,-34L700,-3Z" fill="#d2d2d2" stroke="#d2d2d2" stroke-width="1.51"/><path d="M654,-70L700,-3L731,-29Z" fill="#cccccc" stroke="#cccccc" stroke-width="1.51"/><path d="M498,1129L534,1155L592,999Z" fill="#5a5a5a" stroke="#5a5a5a" stroke-width="1.51"/><path d="M1359,256L1315,191L1317,319Z" fill="#6e6e6e" stroke="#6e6e6e" stroke-width="1.51"/><path d="M1189,108L1175,-26L1101,38Z" fill="#979797" stroke="#979797" stroke-width="1.51"/><path d="M534,1155L1072,1150L844,1142Z" fill="#414141" stroke="#414141" stroke-width="1.51"/><path d="M844,1142L1072,1150L1006,1084Z" fill="#333333" stroke="#333333" stroke-width="1.51"/><path d="M1472,344L1359,256L1317,319Z" fill="#636363" stroke="#636363" stroke-width="1.51"/><path d="M1206,1084L1283,991L1156,1048Z" fill="#1b1b1b" stroke="#1b1b1b" stroke-width="1.51"/><path d="M1156,1048L1283,991L1151,935Z" fill="#1d1d1d" stroke="#1d1d1d" stroke-width="1.51"/><path d="M804,-61L654,-70L731,-29Z" fill="#c8c8c8" stroke="#c8c8c8" stroke-width="1.51"/><path d="M1006,-123L654,-70L804,-61Z" fill="#bfbfbf" stroke="#bfbfbf" stroke-width="1.51"/><path d="M654,-70L588,-63L576,-34Z" fill="#d6d6d6" stroke="#d6d6d6" stroke-width="1.51"/><path d="M329,12L326,93L423,133Z" fill="#e6e6e6" stroke="#e6e6e6" stroke-width="1.51"/><path d="M1416,931L1394,842L1239,881Z" fill="#101010" stroke="#101010" stroke-width="1.51"/><path d="M1474,666L1472,520L1344,581Z" fill="#373737" stroke="#373737" stroke-width="1.51"/><path d="M1403,489L1472,520L1409,446Z" fill="#454545" stroke="#454545" stroke-width="1.51"/><path d="M235,871L259,963L413,906Z" fill="#696969" stroke="#696969" stroke-width="1.51"/><path d="M498,1129L379,1153L534,1155Z" fill="#5f5f5f" stroke="#5f5f5f" stroke-width="1.51"/><path d="M186,875L259,963L235,871Z" fill="#6e6e6e" stroke="#6e6e6e" stroke-width="1.51"/><path d="M1072,1150L1206,1084L1156,1048Z" fill="#232323" stroke="#232323" stroke-width="1.51"/><path d="M464,-50L524,137L576,-34Z" fill="#dedede" stroke="#dedede" stroke-width="1.51"/><path d="M259,266L142,324L291,353Z" fill="#d6d6d6" stroke="#d6d6d6" stroke-width="1.51"/><path d="M326,93L252,168L384,170Z" fill="#e4e4e4" stroke="#e4e4e4" stroke-width="1.51"/><path d="M182,421L118,506L251,493Z" fill="#bebebe" stroke="#bebebe" stroke-width="1.51"/><path d="M146,797L218,763L197,728Z" fill="#888888" stroke="#888888" stroke-width="1.51"/><path d="M146,797L186,875L218,763Z" fill="#7f7f7f" stroke="#7f7f7f" stroke-width="1.51"/><path d="M102,440L118,506L182,421Z" fill="#c3c3c3" stroke="#c3c3c3" stroke-width="1.51"/><path d="M146,797L197,728L34,659Z" fill="#939393" stroke="#939393" stroke-width="1.51"/><path d="M1415,146L1275,91L1315,191Z" fill="#797979" stroke="#797979" stroke-width="1.51"/><path d="M1315,191L1275,91L1212,165Z" fill="#7f7f7f" stroke="#7f7f7f" stroke-width="1.51"/><path d="M1101,38L1006,-123L953,-6Z" fill="#aaaaaa" stroke="#aaaaaa" stroke-width="1.51"/><path d="M1409,446L1472,344L1317,319Z" fill="#595959" stroke="#595959" stroke-width="1.51"/><path d="M1474,666L1344,581L1369,711Z" fill="#313131" stroke="#313131" stroke-width="1.51"/><path d="M34,659L197,728L166,609Z" fill="#a1a1a1" stroke="#a1a1a1" stroke-width="1.51"/><path d="M1484,788L1474,666L1369,711Z" fill="#222222" stroke="#222222" stroke-width="1.51"/><path d="M99,293L142,324L89,226Z" fill="#e0e0e0" stroke="#e0e0e0" stroke-width="1.51"/><path d="M1394,842L1484,788L1369,711Z" fill="#1a1a1a" stroke="#1a1a1a" stroke-width="1.51"/><path d="M1283,991L1336,1000L1239,881Z" fill="#141414" stroke="#141414" stroke-width="1.51"/><path d="M1319,1122L1336,1000L1283,991Z" fill="#111111" stroke="#111111" stroke-width="1.51"/><path d="M326,93L259,68L252,168Z" fill="#e9e9e9" stroke="#e9e9e9" stroke-width="1.51"/><path d="M588,-63L464,-50L576,-34Z" fill="#dddddd" stroke="#dddddd" stroke-width="1.51"/><path d="M437,-90L464,-50L588,-63Z" fill="#e1e1e1" stroke="#e1e1e1" stroke-width="1.51"/><path d="M22,560L34,659L166,609Z" fill="#acacac" stroke="#acacac" stroke-width="1.51"/><path d="M142,324L102,440L182,421Z" fill="#cdcdcd" stroke="#cdcdcd" stroke-width="1.51"/><path d="M1275,91L1175,-26L1189,108Z" fill="#8d8d8d" stroke="#8d8d8d" stroke-width="1.51"/><path d="M1416,931L1427,887L1394,842Z" fill="#070707" stroke="#070707" stroke-width="1.51"/><path d="M260,1069L374,981L259,963Z" fill="#6a6a6a" stroke="#6a6a6a" stroke-width="1.51"/><path d="M260,1069L379,1153L374,981Z" fill="#686868" stroke="#686868" stroke-width="1.51"/><path d="M1513,378L1472,344L1409,446Z" fill="#525252" stroke="#525252" stroke-width="1.51"/><path d="M1359,256L1405,188L1315,191Z" fill="#707070" stroke="#707070" stroke-width="1.51"/><path d="M1513,378L1409,446L1472,520Z" fill="#494949" stroke="#494949" stroke-width="1.51"/><path d="M1532,627L1508,551L1474,666Z" fill="#323232" stroke="#323232" stroke-width="1.51"/><path d="M1474,666L1508,551L1472,520Z" fill="#373737" stroke="#373737" stroke-width="1.51"/><path d="M1275,91L1247,-53L1175,-26Z" fill="#8e8e8e" stroke="#8e8e8e" stroke-width="1.51"/><path d="M1513,240L1405,188L1359,256Z" fill="#676767" stroke="#676767" stroke-width="1.51"/><path d="M464,-50L329,12L423,133Z" fill="#e6e6e6" stroke="#e6e6e6" stroke-width="1.51"/><path d="M89,226L142,324L259,266Z" fill="#dfdfdf" stroke="#dfdfdf" stroke-width="1.51"/><path d="M853,-66L1006,-123L804,-61Z" fill="#b8b8b8" stroke="#b8b8b8" stroke-width="1.51"/><path d="M390,-132L437,-90L588,-63Z" fill="#e3e3e3" stroke="#e3e3e3" stroke-width="1.51"/><path d="M1033,-134L1006,-123L1101,38Z" fill="#a8a8a8" stroke="#a8a8a8" stroke-width="1.51"/><path d="M1336,1000L1416,931L1239,881Z" fill="#0f0f0f" stroke="#0f0f0f" stroke-width="1.51"/><path d="M1583,853L1484,788L1427,887Z" fill="#0d0d0d" stroke="#0d0d0d" stroke-width="1.51"/><path d="M1427,887L1484,788L1394,842Z" fill="#0e0e0e" stroke="#0e0e0e" stroke-width="1.51"/><path d="M329,12L259,68L326,93Z" fill="#ebebeb" stroke="#ebebeb" stroke-width="1.51"/><path d="M180,998L260,1069L259,963Z" fill="#6d6d6d" stroke="#6d6d6d" stroke-width="1.51"/><path d="M180,998L259,963L186,875Z" fill="#6f6f6f" stroke="#6f6f6f" stroke-width="1.51"/><path d="M102,440L63,463L118,506Z" fill="#c2c2c2" stroke="#c2c2c2" stroke-width="1.51"/><path d="M99,293L63,463L102,440Z" fill="#cfcfcf" stroke="#cfcfcf" stroke-width="1.51"/><path d="M99,293L102,440L142,324Z" fill="#d6d6d6" stroke="#d6d6d6" stroke-width="1.51"/><path d="M1175,-26L1033,-134L1101,38Z" fill="#a1a1a1" stroke="#a1a1a1" stroke-width="1.51"/><path d="M1006,-123L1033,-134L654,-70Z" fill="#b6b6b6" stroke="#b6b6b6" stroke-width="1.51"/><path d="M1538,675L1532,627L1474,666Z" fill="#2d2d2d" stroke="#2d2d2d" stroke-width="1.51"/><path d="M1592,501L1513,378L1472,520Z" fill="#474747" stroke="#474747" stroke-width="1.51"/><path d="M144,159L259,266L252,168Z" fill="#e5e5e5" stroke="#e5e5e5" stroke-width="1.51"/><path d="M329,12L251,22L259,68Z" fill="#eeeeee" stroke="#eeeeee" stroke-width="1.51"/><path d="M464,-50L437,-90L329,12Z" fill="#e8e8e8" stroke="#e8e8e8" stroke-width="1.51"/><path d="M390,-132L588,-63L654,-70Z" fill="#dddddd" stroke="#dddddd" stroke-width="1.51"/><path d="M1538,197L1415,146L1405,188Z" fill="#6b6b6b" stroke="#6b6b6b" stroke-width="1.51"/><path d="M1551,353L1513,378L1592,501Z" fill="#4f4f4f" stroke="#4f4f4f" stroke-width="1.51"/><path d="M104,888L180,998L186,875Z" fill="#717171" stroke="#717171" stroke-width="1.51"/><path d="M104,888L186,875L146,797Z" fill="#797979" stroke="#797979" stroke-width="1.51"/><path d="M1405,188L1415,146L1315,191Z" fill="#717171" stroke="#717171" stroke-width="1.51"/><path d="M1175,-26L1218,-85L1033,-134Z" fill="#9b9b9b" stroke="#9b9b9b" stroke-width="1.51"/><path d="M1513,240L1359,256L1472,344Z" fill="#606060" stroke="#606060" stroke-width="1.51"/><path d="M1592,501L1472,520L1508,551Z" fill="#3f3f3f" stroke="#3f3f3f" stroke-width="1.51"/><path d="M1484,788L1538,675L1474,666Z" fill="#242424" stroke="#242424" stroke-width="1.51"/><path d="M1602,826L1538,675L1484,788Z" fill="#1a1a1a" stroke="#1a1a1a" stroke-width="1.51"/><path d="M40,848L104,888L146,797Z" fill="#7d7d7d" stroke="#7d7d7d" stroke-width="1.51"/><path d="M22,560L166,609L118,506Z" fill="#b3b3b3" stroke="#b3b3b3" stroke-width="1.51"/><path d="M154,65L144,159L252,168Z" fill="#eeeeee" stroke="#eeeeee" stroke-width="1.51"/><path d="M154,65L252,168L259,68Z" fill="#eeeeee" stroke="#eeeeee" stroke-width="1.51"/><path d="M1206,1084L1319,1122L1283,991Z" fill="#151515" stroke="#151515" stroke-width="1.51"/><path d="M1336,1000L1441,1041L1416,931Z" fill="#060606" stroke="#060606" stroke-width="1.51"/><path d="M1072,1150L1319,1122L1206,1084Z" fill="#1d1d1d" stroke="#1d1d1d" stroke-width="1.51"/><path d="M185,-33L251,22L220,-87Z" fill="#f5f5f5" stroke="#f5f5f5" stroke-width="1.51"/><path d="M63,463L22,560L118,506Z" fill="#bcbcbc" stroke="#bcbcbc" stroke-width="1.51"/><path d="M-26,547L22,560L63,463Z" fill="#bcbcbc" stroke="#bcbcbc" stroke-width="1.51"/><path d="M1385,45L1247,-53L1275,91Z" fill="#838383" stroke="#838383" stroke-width="1.51"/><path d="M1247,-53L1218,-85L1175,-26Z" fill="#909090" stroke="#909090" stroke-width="1.51"/><path d="M-35,449L-26,547L63,463Z" fill="#c3c3c3" stroke="#c3c3c3" stroke-width="1.51"/><path d="M144,159L89,226L259,266Z" fill="#e6e6e6" stroke="#e6e6e6" stroke-width="1.51"/><path d="M85,137L89,226L144,159Z" fill="#ececec" stroke="#ececec" stroke-width="1.51"/><path d="M1513,378L1551,353L1472,344Z" fill="#575757" stroke="#575757" stroke-width="1.51"/><path d="M1592,501L1508,551L1532,627Z" fill="#3a3a3a" stroke="#3a3a3a" stroke-width="1.51"/><path d="M1415,146L1385,45L1275,91Z" fill="#7a7a7a" stroke="#7a7a7a" stroke-width="1.51"/><path d="M1247,-53L1307,-125L1218,-85Z" fill="#8a8a8a" stroke="#8a8a8a" stroke-width="1.51"/><path d="M1453,85L1385,45L1415,146Z" fill="#747474" stroke="#747474" stroke-width="1.51"/><path d="M1551,353L1513,240L1472,344Z" fill="#5d5d5d" stroke="#5d5d5d" stroke-width="1.51"/><path d="M44,981L148,1078L180,998Z" fill="#737373" stroke="#737373" stroke-width="1.51"/><path d="M34,659L40,848L146,797Z" fill="#8b8b8b" stroke="#8b8b8b" stroke-width="1.51"/><path d="M-45,787L40,848L34,659Z" fill="#8f8f8f" stroke="#8f8f8f" stroke-width="1.51"/><path d="M1666,478L1592,501L1711,614Z" fill="#3e3e3e" stroke="#3e3e3e" stroke-width="1.51"/><path d="M1555,994L1583,853L1427,887Z" fill="#000000" stroke="#000000" stroke-width="1.51"/><path d="M1711,614L1592,501L1532,627Z" fill="#373737" stroke="#373737" stroke-width="1.51"/><path d="M1319,1122L1441,1041L1336,1000Z" fill="#0b0b0b" stroke="#0b0b0b" stroke-width="1.51"/><path d="M1033,-134L390,-132L654,-70Z" fill="#cccccc" stroke="#cccccc" stroke-width="1.51"/><path d="M437,-90L390,-132L329,12Z" fill="#eaeaea" stroke="#eaeaea" stroke-width="1.51"/><path d="M185,-33L154,65L251,22Z" fill="#f5f5f5" stroke="#f5f5f5" stroke-width="1.51"/><path d="M251,22L154,65L259,68Z" fill="#f1f1f1" stroke="#f1f1f1" stroke-width="1.51"/><path d="M22,560L-26,643L34,659Z" fill="#adadad" stroke="#adadad" stroke-width="1.51"/><path d="M-35,449L63,463L99,293Z" fill="#d0d0d0" stroke="#d0d0d0" stroke-width="1.51"/><path d="M1072,1150L1371,1144L1319,1122Z" fill="#171717" stroke="#171717" stroke-width="1.51"/><path d="M1319,1122L1371,1144L1441,1041Z" fill="#090909" stroke="#090909" stroke-width="1.51"/><path d="M1538,197L1453,85L1415,146Z" fill="#6e6e6e" stroke="#6e6e6e" stroke-width="1.51"/><path d="M1420,-80L1307,-125L1247,-53Z" fill="#838383" stroke="#838383" stroke-width="1.51"/><path d="M-26,547L-26,643L22,560Z" fill="#b3b3b3" stroke="#b3b3b3" stroke-width="1.51"/><path d="M44,981L180,998L104,888Z" fill="#737373" stroke="#737373" stroke-width="1.51"/><path d="M180,998L148,1078L260,1069Z" fill="#707070" stroke="#707070" stroke-width="1.51"/><path d="M260,1069L148,1078L379,1153Z" fill="#6c6c6c" stroke="#6c6c6c" stroke-width="1.51"/><path d="M-61,283L-35,449L99,293Z" fill="#dddddd" stroke="#dddddd" stroke-width="1.51"/><path d="M154,65L85,137L144,159Z" fill="#f1f1f1" stroke="#f1f1f1" stroke-width="1.51"/><path d="M1513,240L1538,197L1405,188Z" fill="#686868" stroke="#686868" stroke-width="1.51"/><path d="M1601,275L1538,197L1513,240Z" fill="#656565" stroke="#656565" stroke-width="1.51"/><path d="M1601,275L1513,240L1551,353Z" fill="#5f5f5f" stroke="#5f5f5f" stroke-width="1.51"/><path d="M-106,639L-53,664L-26,643Z" fill="#a9a9a9" stroke="#a9a9a9" stroke-width="1.51"/><path d="M-61,283L99,293L89,226Z" fill="#e4e4e4" stroke="#e4e4e4" stroke-width="1.51"/><path d="M1555,994L1416,931L1441,1041Z" fill="#000000" stroke="#000000" stroke-width="1.51"/><path d="M1555,994L1427,887L1416,931Z" fill="#000000" stroke="#000000" stroke-width="1.51"/><path d="M-26,643L-53,664L34,659Z" fill="#a8a8a8" stroke="#a8a8a8" stroke-width="1.51"/><path d="M-18,892L44,981L104,888Z" fill="#757575" stroke="#757575" stroke-width="1.51"/><path d="M-106,639L-26,643L-26,547Z" fill="#afafaf" stroke="#afafaf" stroke-width="1.51"/><path d="M1583,853L1602,826L1484,788Z" fill="#111111" stroke="#111111" stroke-width="1.51"/><path d="M220,-87L251,22L329,12Z" fill="#f2f2f2" stroke="#f2f2f2" stroke-width="1.51"/><path d="M154,65L41,34L85,137Z" fill="#f5f5f5" stroke="#f5f5f5" stroke-width="1.51"/><path d="M-18,892L104,888L40,848Z" fill="#797979" stroke="#797979" stroke-width="1.51"/><path d="M1583,86L1487,-6L1453,85Z" fill="#747474" stroke="#747474" stroke-width="1.51"/><path d="M1646,345L1601,275L1551,353Z" fill="#5b5b5b" stroke="#5b5b5b" stroke-width="1.51"/><path d="M1646,345L1551,353L1592,501Z" fill="#515151" stroke="#515151" stroke-width="1.51"/><path d="M1487,-6L1385,45L1453,85Z" fill="#747474" stroke="#747474" stroke-width="1.51"/><path d="M1420,-80L1247,-53L1385,45Z" fill="#808080" stroke="#808080" stroke-width="1.51"/><path d="M1218,-85L1307,-125L1033,-134Z" fill="#959595" stroke="#959595" stroke-width="1.51"/><path d="M-53,664L-45,787L34,659Z" fill="#9d9d9d" stroke="#9d9d9d" stroke-width="1.51"/><path d="M390,-132L220,-87L329,12Z" fill="#efefef" stroke="#efefef" stroke-width="1.51"/><path d="M-45,787L-18,892L40,848Z" fill="#818181" stroke="#818181" stroke-width="1.51"/><path d="M1686,936L1720,774L1602,826Z" fill="#0d0d0d" stroke="#0d0d0d" stroke-width="1.51"/><path d="M1539,1093L1555,994L1441,1041Z" fill="#000000" stroke="#000000" stroke-width="1.51"/><path d="M1711,614L1532,627L1538,675Z" fill="#2f2f2f" stroke="#2f2f2f" stroke-width="1.51"/><path d="M1666,478L1646,345L1592,501Z" fill="#4a4a4a" stroke="#4a4a4a" stroke-width="1.51"/><path d="M185,-33L160,-60L154,65Z" fill="#f8f8f8" stroke="#f8f8f8" stroke-width="1.51"/><path d="M-34,153L-61,283L89,226Z" fill="#ececec" stroke="#ececec" stroke-width="1.51"/><path d="M220,-87L160,-60L185,-33Z" fill="#f7f7f7" stroke="#f7f7f7" stroke-width="1.51"/><path d="M1371,1144L1473,1140L1441,1041Z" fill="#010201" stroke="#010201" stroke-width="1.51"/><path d="M-34,153L89,226L85,137Z" fill="#efefef" stroke="#efefef" stroke-width="1.51"/><path d="M-153,489L-106,639L-26,547Z" fill="#b7b7b7" stroke="#b7b7b7" stroke-width="1.51"/><path d="M-141,848L-65,1006L-18,892Z" fill="#777777" stroke="#777777" stroke-width="1.51"/><path d="M-53,664L-145,688L-45,787Z" fill="#9b9b9b" stroke="#9b9b9b" stroke-width="1.51"/><path d="M-153,489L-26,547L-35,449Z" fill="#c2c2c2" stroke="#c2c2c2" stroke-width="1.51"/><path d="M1602,826L1675,736L1538,675Z" fill="#1e1e1e" stroke="#1e1e1e" stroke-width="1.51"/><path d="M1720,774L1675,736L1602,826Z" fill="#181818" stroke="#181818" stroke-width="1.51"/><path d="M1583,86L1453,85L1538,197Z" fill="#707070" stroke="#707070" stroke-width="1.51"/><path d="M1583,86L1538,197L1702,158Z" fill="#6d6d6d" stroke="#6d6d6d" stroke-width="1.51"/><path d="M1487,-6L1420,-80L1385,45Z" fill="#787878" stroke="#787878" stroke-width="1.51"/><path d="M1686,936L1602,826L1583,853Z" fill="#070707" stroke="#070707" stroke-width="1.51"/><path d="M1473,1140L1539,1093L1441,1041Z" fill="#000000" stroke="#000000" stroke-width="1.51"/><path d="M160,-60L41,34L154,65Z" fill="#f9f9f9" stroke="#f9f9f9" stroke-width="1.51"/><path d="M1675,736L1711,614L1538,675Z" fill="#2b2b2b" stroke="#2b2b2b" stroke-width="1.51"/><path d="M1666,478L1724,351L1646,345Z" fill="#525252" stroke="#525252" stroke-width="1.51"/><path d="M-65,1006L26,1081L44,981Z" fill="#777777" stroke="#777777" stroke-width="1.51"/><path d="M44,981L26,1081L148,1078Z" fill="#747474" stroke="#747474" stroke-width="1.51"/><path d="M148,1078L0,1120L379,1153Z" fill="#707070" stroke="#707070" stroke-width="1.51"/><path d="M-65,1006L44,981L-18,892Z" fill="#777777" stroke="#777777" stroke-width="1.51"/><path d="M-14,89L-34,153L85,137Z" fill="#f5f5f5" stroke="#f5f5f5" stroke-width="1.51"/><path d="M1487,-6L1540,-29L1420,-80Z" fill="#777777" stroke="#777777" stroke-width="1.51"/><path d="M1702,158L1538,197L1601,275Z" fill="#686868" stroke="#686868" stroke-width="1.51"/><path d="M41,34L-14,89L85,137Z" fill="#f7f7f7" stroke="#f7f7f7" stroke-width="1.51"/><path d="M-106,639L-145,688L-53,664Z" fill="#a6a6a6" stroke="#a6a6a6" stroke-width="1.51"/><path d="M-153,489L-145,688L-106,639Z" fill="#afafaf" stroke="#afafaf" stroke-width="1.51"/><path d="M-155,354L-153,489L-35,449Z" fill="#cdcdcd" stroke="#cdcdcd" stroke-width="1.51"/><path d="M-155,354L-35,449L-61,283Z" fill="#d9d9d9" stroke="#d9d9d9" stroke-width="1.51"/><path d="M-155,354L-61,283L-144,263Z" fill="#e2e2e2" stroke="#e2e2e2" stroke-width="1.51"/><path d="M1675,736L1720,774L1711,614Z" fill="#242424" stroke="#242424" stroke-width="1.51"/><path d="M1686,936L1583,853L1555,994Z" fill="#000000" stroke="#000000" stroke-width="1.51"/><path d="M1583,86L1540,-29L1487,-6Z" fill="#767676" stroke="#767676" stroke-width="1.51"/><path d="M1646,345L1724,351L1601,275Z" fill="#5b5b5b" stroke="#5b5b5b" stroke-width="1.51"/><path d="M1583,86L1681,9L1540,-29Z" fill="#767676" stroke="#767676" stroke-width="1.51"/><path d="M1711,614L1724,351L1666,478Z" fill="#454545" stroke="#454545" stroke-width="1.51"/><path d="M1720,774L1724,351L1711,614Z" fill="#373737" stroke="#373737" stroke-width="1.51"/><path d="M-141,848L-18,892L-45,787Z" fill="#818181" stroke="#818181" stroke-width="1.51"/><path d="M-65,1006L0,1120L26,1081Z" fill="#777777" stroke="#777777" stroke-width="1.51"/><path d="M26,1081L0,1120L148,1078Z" fill="#757575" stroke="#757575" stroke-width="1.51"/><path d="M1695,1051L1686,936L1555,994Z" fill="#000000" stroke="#000000" stroke-width="1.51"/><path d="M-144,263L-61,283L-34,153Z" fill="#ebebeb" stroke="#ebebeb" stroke-width="1.51"/><path d="M-145,688L-141,848L-45,787Z" fill="#8d8d8d" stroke="#8d8d8d" stroke-width="1.51"/><path d="M-168,859L-141,848L-145,688Z" fill="#888888" stroke="#888888" stroke-width="1.51"/><path d="M-170,210L-144,263L-34,153Z" fill="#ededed" stroke="#ededed" stroke-width="1.51"/><path d="M1724,351L1702,158L1601,275Z" fill="#626262" stroke="#626262" stroke-width="1.51"/><path d="M-141,848L-168,859L-65,1006Z" fill="#777777" stroke="#777777" stroke-width="1.51"/><path d="M-65,1006L-123,1060L0,1120Z" fill="#777777" stroke="#777777" stroke-width="1.51"/><path d="M-153,489L-168,859L-145,688Z" fill="#a3a3a3" stroke="#a3a3a3" stroke-width="1.51"/><path d="M-170,210L-168,859L-153,489Z" fill="#bdbdbd" stroke="#bdbdbd" stroke-width="1.51"/><path d="M-14,89L-117,113L-34,153Z" fill="#f7f7f7" stroke="#f7f7f7" stroke-width="1.51"/><path d="M41,34L-49,-45L-14,89Z" fill="#fdfdfd" stroke="#fdfdfd" stroke-width="1.51"/><path d="M160,-60L40,-101L41,34Z" fill="#fbfbfb" stroke="#fbfbfb" stroke-width="1.51"/><path d="M220,-87L40,-101L160,-60Z" fill="#f9f9f9" stroke="#f9f9f9" stroke-width="1.51"/><path d="M390,-132L40,-101L220,-87Z" fill="#f5f5f5" stroke="#f5f5f5" stroke-width="1.51"/><path d="M1539,1093L1651,1099L1555,994Z" fill="#000000" stroke="#000000" stroke-width="1.51"/><path d="M1473,1140L1651,1099L1539,1093Z" fill="#000000" stroke="#000000" stroke-width="1.51"/><path d="M-49,-45L-117,113L-14,89Z" fill="#fbfbfb" stroke="#fbfbfb" stroke-width="1.51"/><path d="M1420,-80L1508,-154L1307,-125Z" fill="#7a7a7a" stroke="#7a7a7a" stroke-width="1.51"/><path d="M1307,-125L1508,-154L1033,-134Z" fill="#878787" stroke="#878787" stroke-width="1.51"/><path d="M1033,-134L1508,-154L390,-132Z" fill="#afafaf" stroke="#afafaf" stroke-width="1.51"/><path d="M1540,-29L1508,-154L1420,-80Z" fill="#777777" stroke="#777777" stroke-width="1.51"/><path d="M1549,-143L1508,-154L1540,-29Z" fill="#777777" stroke="#777777" stroke-width="1.51"/><path d="M-117,113L-170,210L-34,153Z" fill="#f3f3f3" stroke="#f3f3f3" stroke-width="1.51"/><path d="M-144,263L-170,210L-155,354Z" fill="#e5e5e5" stroke="#e5e5e5" stroke-width="1.51"/><path d="M-155,354L-170,210L-153,489Z" fill="#dbdbdb" stroke="#dbdbdb" stroke-width="1.51"/><path d="M1651,1099L1695,1051L1555,994Z" fill="#000000" stroke="#000000" stroke-width="1.51"/><path d="M1686,936L1695,1051L1720,774Z" fill="#000000" stroke="#000000" stroke-width="1.51"/><path d="M-117,113L-143,-52L-170,210Z" fill="#f9f9f9" stroke="#f9f9f9" stroke-width="1.51"/><path d="M40,-101L-24,-68L41,34Z" fill="#fefefe" stroke="#fefefe" stroke-width="1.51"/><path d="M1702,158L1698,71L1583,86Z" fill="#717171" stroke="#717171" stroke-width="1.51"/><path d="M1724,351L1698,71L1702,158Z" fill="#696969" stroke="#696969" stroke-width="1.51"/><path d="M-168,859L-126,1047L-65,1006Z" fill="#777777" stroke="#777777" stroke-width="1.51"/><path d="M-126,1047L-123,1060L-65,1006Z" fill="#777777" stroke="#777777" stroke-width="1.51"/><path d="M1667,-114L1549,-143L1540,-29Z" fill="#777777" stroke="#777777" stroke-width="1.51"/><path d="M-24,-68L-49,-45L41,34Z" fill="#ffffff" stroke="#ffffff" stroke-width="1.51"/><path d="M1698,71L1681,9L1583,86Z" fill="#747474" stroke="#747474" stroke-width="1.51"/><path d="M1698,71L1667,-114L1681,9Z" fill="#777777" stroke="#777777" stroke-width="1.51"/><path d="M1681,9L1667,-114L1540,-29Z" fill="#777777" stroke="#777777" stroke-width="1.51"/><path d="M1549,-143L1667,-114L1508,-154Z" fill="#777777" stroke="#777777" stroke-width="1.51"/><path d="M-148,-151L-143,-52L-49,-45Z" fill="#ffffff" stroke="#ffffff" stroke-width="1.51"/><path d="M-49,-45L-143,-52L-117,113Z" fill="#fefefe" stroke="#fefefe" stroke-width="1.51"/><path d="M-148,-151L-49,-45L-24,-68Z" fill="#ffffff" stroke="#ffffff" stroke-width="1.51"/><path d="M40,-101L-148,-151L-24,-68Z" fill="#ffffff" stroke="#ffffff" stroke-width="1.51"/><path d="M-143,-52L-148,-151L-170,210Z" fill="#ffffff" stroke="#ffffff" stroke-width="1.51"/><path d="M390,-132L-148,-151L40,-101Z" fill="#fbfbfb" stroke="#fbfbfb" stroke-width="1.51"/><path d="M1508,-154L-148,-151L390,-132Z" fill="#d8d8d8" stroke="#d8d8d8" stroke-width="1.51"/></svg>